<?xml version="1.0" standalone="no"?>
<!DOCTYPE svg PUBLIC "-//W3C//DTD SVG 20010904//EN"
 "http://www.w3.org/TR/2001/REC-SVG-20010904/DTD/svg10.dtd">
<svg version="1.0" xmlns="http://www.w3.org/2000/svg"
 width="300.000000pt" height="300.000000pt" viewBox="0 0 300.000000 300.000000"
 preserveAspectRatio="xMidYMid meet">
<metadata>
Created by potrace 1.11, written by Peter Selinger 2001-2013
</metadata>
<g transform="translate(0.000000,300.000000) scale(0.100000,-0.100000)"
fill="#000000" stroke="none">
<path d="M1349 2736 c-2 -2 -33 -6 -69 -10 -176 -16 -426 -94 -595 -184 -294
-157 -537 -430 -630 -707 -19 -56 -20 -62 -40 -159 -13 -70 -14 -299 -1 -361
29 -132 88 -283 150 -379 31 -49 41 -57 59 -52 12 3 50 11 84 18 35 6 63 15
63 18 0 4 -13 24 -29 44 -51 64 -120 190 -151 274 -158 433 17 906 442 1194
202 138 428 217 718 253 55 6 258 7 320 0 45 -5 181 -28 231 -39 240 -54 535
-218 691 -384 193 -206 288 -427 293 -680 3 -199 -39 -351 -147 -530 -41 -68
-44 -71 -83 -117 -89 -102 -222 -221 -284 -255 -24 -12 -24 -13 -5 -27 10 -8
47 -28 81 -45 l61 -32 67 58 c213 187 346 403 404 654 24 108 23 331 -4 441
-85 355 -350 665 -719 840 -109 52 -216 92 -311 115 -59 15 -73 18 -145 30
-19 3 -48 9 -65 12 -34 7 -380 16 -386 10z"/>
<path d="M1498 2412 c-1 -4 -84 -73 -183 -152 -99 -80 -182 -147 -185 -150 -3
-3 -50 -41 -105 -85 -55 -43 -102 -82 -105 -85 -3 -3 -39 -32 -80 -65 -41 -33
-80 -64 -86 -70 -6 -5 -68 -55 -137 -110 -69 -55 -123 -103 -121 -107 2 -3 60
-5 129 -5 l124 2 3 -105 c2 -58 2 -172 0 -253 l-3 -148 -28 4 c-159 25 -175
191 -39 393 37 56 35 78 -3 34 -61 -70 -134 -187 -166 -265 -64 -159 -25 -276
103 -305 21 -5 80 -7 129 -5 163 6 398 91 628 227 l47 28 27 -55 c26 -53 43
-69 43 -42 0 6 20 61 45 121 25 60 42 113 38 117 -7 6 -150 51 -203 64 -8 2
-23 6 -32 10 -23 9 -23 4 7 -55 14 -27 25 -53 25 -59 0 -24 -381 -191 -438
-191 -4 0 -8 130 -7 289 l0 288 260 214 c143 118 268 221 279 229 10 8 24 20
30 27 12 11 69 -29 188 -131 20 -17 64 -53 98 -81 34 -27 76 -62 94 -77 17
-15 36 -28 41 -28 20 0 112 168 98 179 -4 4 -33 27 -63 52 -30 24 -60 48 -67
54 -15 12 -3 2 -193 155 -85 69 -161 130 -168 137 -16 15 -19 16 -24 5z"/>
<path d="M1882 2293 l-54 -48 44 -41 c62 -58 65 -58 66 -17 1 20 4 38 6 40 9
10 75 -19 99 -43 80 -80 33 -243 -128 -444 -43 -53 -213 -218 -278 -269 -37
-29 -65 -56 -62 -60 4 -3 21 -11 38 -17 33 -12 34 -15 21 -48 -17 -45 294 237
380 343 l27 34 27 -26 26 -26 1 -531 c0 -291 -1 -530 -4 -530 -2 0 -60 18
-130 39 -167 52 -391 108 -506 125 -16 2 -50 7 -75 11 -25 4 -58 9 -75 11 -16
3 -48 7 -70 9 -22 3 -71 8 -110 12 -93 10 -500 10 -600 0 -171 -17 -464 -73
-483 -92 -4 -3 14 -3 38 0 25 3 88 7 139 9 l95 3 60 -56 c241 -223 569 -370
911 -409 78 -9 351 -9 435 0 142 15 355 74 492 136 35 16 73 27 83 26 11 -2
107 -25 213 -51 105 -27 192 -45 192 -42 0 3 -57 33 -127 66 -130 61 -157 73
-250 113 -29 12 -53 28 -54 34 -5 67 -2 1019 3 1022 4 3 63 5 132 6 70 1 126
4 126 7 -1 4 -21 22 -46 41 -186 143 -325 264 -321 279 3 9 15 42 26 73 60
163 -6 268 -177 284 l-71 7 -3 34 -3 35 -53 -49z m-1092 -1589 c48 -5 188 -23
230 -29 14 -2 45 -6 70 -9 25 -3 56 -8 70 -11 13 -2 42 -7 65 -10 22 -3 94
-15 160 -27 66 -11 129 -22 140 -23 11 -2 54 -10 95 -19 80 -16 113 -23 170
-32 19 -3 38 -8 41 -10 3 -2 21 -6 40 -9 19 -4 41 -8 49 -10 8 -2 23 -4 33 -4
27 -1 20 -18 -10 -24 -16 -4 -60 -13 -99 -22 -102 -21 -190 -29 -339 -29 -273
0 -483 48 -719 166 -77 38 -186 106 -186 115 0 5 76 -1 190 -13z"/>
</g>
</svg>
